<mxfile host="app.diagrams.net" modified="2024-03-27T06:31:23.029Z" agent="Mozilla/5.0 (Windows NT 10.0; Win64; x64; rv:123.0) Gecko/20100101 Firefox/123.0" version="23.1.5" etag="VZWS-x62CXwbYBSo30pI" type="github">
  <diagram name="Page-1" id="3ur_LLsrb5n8ao4B4QoP">
    <mxGraphModel>
      <root>
        <mxCell id="0" />
        <mxCell id="1" parent="0" />
      </root>
    </mxGraphModel>
  </diagram>
</mxfile>
